<?xml version="1.0" encoding="iso-8859-1"?>
<!-- Uploaded to: SVG Repo, www.svgrepo.com, Generator: SVG Repo Mixer Tools -->
<svg fill="#F5F5DC" height="800px" width="800px" version="1.1" id="Capa_1" xmlns="http://www.w3.org/2000/svg" xmlns:xlink="http://www.w3.org/1999/xlink" 
	 viewBox="0 0 463 463" xml:space="preserve">
<path d="M431,231.5c0-43.742-4.489-86.368-13.319-126.763c2.785-3.743,3.746-8.452,2.61-12.996l-4-16
	c-1.2-4.8-4.551-8.59-8.871-10.461c-5.497-18.085-11.913-35.413-19.12-51.545C384.573,5.391,376.169,0,366.891,0H96.109
	C86.831,0,78.427,5.391,74.7,13.733c-7.207,16.132-13.623,33.459-19.12,51.546c-4.32,1.871-7.671,5.661-8.871,10.461l-4,16.001
	c-1.135,4.543-0.174,9.252,2.611,12.995C36.488,145.132,32,187.759,32,231.5c0,43.74,4.489,86.367,13.319,126.764
	c-2.785,3.743-3.746,8.452-2.61,12.996l4,16c1.2,4.8,4.551,8.59,8.871,10.461c5.496,18.084,11.913,35.412,19.12,51.545
	C78.427,457.609,86.831,463,96.109,463h270.781c9.279,0,17.682-5.391,21.409-13.733c7.209-16.137,13.625-33.465,19.12-51.546
	c4.32-1.871,7.671-5.661,8.871-10.461l4-16.001c1.135-4.543,0.174-9.253-2.611-12.995C426.511,317.868,431,275.242,431,231.5z
	 M276.332,448c1.73-15.38,3.275-31.801,4.612-49h61.651c-3.867,17.257-8.344,33.682-13.346,49H276.332z M201.764,448
	c-1.748-15.347-3.312-31.767-4.664-49H265.9c-1.352,17.233-2.915,33.653-4.664,49H201.764z M133.753,448
	c-5.002-15.32-9.48-31.737-13.348-49h61.652c1.337,17.199,2.881,33.62,4.612,49H133.753z M61.746,384
	c-0.23,0-0.43-0.156-0.485-0.379l-4-15.999c-0.018-0.071-0.06-0.237,0.091-0.43C57.502,367,57.673,367,57.746,367h47.341
	c0.051,0.001,0.1,0.007,0.151,0.007c0.029,0,0.058-0.007,0.086-0.007h299.929c0.073,0,0.244,0,0.394,0.192
	c0.15,0.192,0.109,0.358,0.091,0.429l-4,16c-0.056,0.223-0.255,0.379-0.485,0.379H61.746z M186.668,15
	c-1.73,15.382-3.275,31.803-4.611,49h-61.651c3.867-17.257,8.344-33.681,13.345-49H186.668z M261.236,15
	c1.749,15.349,3.312,31.769,4.664,49h-68.799c1.351-17.231,2.915-33.651,4.664-49H261.236z M329.248,15
	c5.001,15.318,9.479,31.743,13.346,49h-61.651c-1.336-17.197-2.881-33.618-4.611-49H329.248z M401.254,79
	c0.23,0,0.43,0.156,0.485,0.379l4,15.999c0.018,0.071,0.06,0.237-0.091,0.43C405.498,96,405.327,96,405.254,96H57.746
	c-0.073,0-0.244,0-0.394-0.192c-0.15-0.192-0.109-0.358-0.091-0.429l4-16C61.316,79.156,61.516,79,61.746,79H401.254z M366.481,352
	c5.652-38.518,8.519-79.006,8.519-120.5s-2.867-81.982-8.519-120.5h37.209c8.164,38.436,12.31,78.938,12.31,120.5
	s-4.146,82.064-12.31,120.5H366.481z M283.962,352C285.97,313.498,287,273.022,287,231.5c0-41.522-1.03-81.999-3.038-120.5h67.354
	c5.761,38.448,8.684,78.948,8.684,120.5s-2.924,82.052-8.684,120.5H283.962z M59.31,352C51.146,313.563,47,273.06,47,231.5
	c0-41.56,4.146-82.063,12.31-120.5h37.209C90.867,149.516,88,190.004,88,231.5c0,41.493,2.867,81.981,8.519,120.5H59.31z
	 M111.684,352c-5.76-38.448-8.684-78.949-8.684-120.5c0-41.553,2.924-82.054,8.684-120.5h67.354
	C177.03,149.501,176,189.978,176,231.5c0,41.522,1.03,81.998,3.038,120.5H111.684z M194.058,352
	C192.037,313.525,191,273.043,191,231.5c0-41.543,1.037-82.025,3.058-120.5h74.883c2.021,38.475,3.058,78.957,3.058,120.5
	c0,41.543-1.037,82.025-3.058,120.5H194.058z M374.604,19.853c6.202,13.881,11.8,28.7,16.711,44.147h-33.368
	c-3.752-17.173-8.09-33.594-12.948-49h21.891C370.26,15,373.288,16.904,374.604,19.853z M88.396,19.852
	C89.712,16.904,92.74,15,96.109,15H118c-4.858,15.406-9.196,31.828-12.947,49H71.684C76.596,48.551,82.194,33.733,88.396,19.852z
	 M88.396,443.147c-6.202-13.882-11.8-28.7-16.711-44.147h33.367c3.753,17.178,8.092,33.594,12.949,49H96.109
	C92.74,448,89.712,446.096,88.396,443.147z M374.604,443.148c-1.317,2.947-4.345,4.852-7.714,4.852H345
	c4.857-15.406,9.196-31.827,12.948-49h33.368C386.406,414.444,380.807,429.262,374.604,443.148z"/>
</svg>